<?xml version="1.0" standalone="no"?>
<!DOCTYPE svg PUBLIC "-//W3C//DTD SVG 20010904//EN"
 "http://www.w3.org/TR/2001/REC-SVG-20010904/DTD/svg10.dtd">
<svg version="1.0" xmlns="http://www.w3.org/2000/svg"
 width="1080.000000pt" height="1080.000000pt" viewBox="0 0 1080.000000 1080.000000"
 preserveAspectRatio="xMidYMid meet">

<g transform="translate(0.000000,1080.000000) scale(0.100000,-0.100000)"
fill="#000000" stroke="none">
<path d="M3815 8816 c-74 -18 -113 -42 -176 -107 -117 -119 -138 -287 -56
-443 35 -66 102 -125 182 -162 l50 -23 330 -702 c181 -386 325 -704 320 -706
-6 -2 -181 -107 -390 -232 l-380 -227 -47 32 c-88 60 -223 66 -320 14 l-35
-18 -234 251 c-129 138 -237 256 -241 263 -5 6 -1 29 8 50 57 136 24 303 -81
407 -154 155 -402 149 -549 -13 -127 -141 -127 -359 -1 -499 l35 -38 -76 -589
-75 -589 -49 -47 c-67 -64 -92 -117 -98 -206 -4 -66 -2 -78 27 -137 58 -116
149 -170 280 -163 l70 3 365 -770 c201 -424 366 -775 366 -779 0 -5 -18 -29
-41 -53 -22 -25 -53 -70 -67 -101 -23 -49 -27 -70 -27 -152 0 -82 4 -103 27
-152 74 -159 242 -248 409 -218 57 10 120 38 180 81 11 9 199 -16 785 -105
423 -64 1116 -169 1539 -233 l770 -116 42 -34 c236 -190 564 -26 541 270 -7
87 -40 157 -100 213 l-50 47 226 790 c124 434 228 792 231 795 3 3 92 9 198
14 105 5 307 14 447 21 l255 13 59 -30 c45 -23 76 -30 135 -34 102 -5 172 20
245 91 72 71 100 143 94 247 -9 152 -104 264 -259 304 l-52 13 -212 602 -212
603 43 43 c78 79 110 178 93 289 -31 192 -199 311 -390 276 -70 -12 -72 -12
-94 11 -85 91 -378 406 -774 834 -256 275 -482 519 -505 543 l-40 42 22 43
c43 80 46 192 8 266 -65 126 -216 189 -347 146 -69 -23 -161 -112 -180 -174
l-12 -42 -141 6 c-78 3 -429 10 -781 15 -352 6 -685 13 -741 16 l-101 6 -12
34 c-16 44 -113 145 -166 171 -81 41 -179 51 -270 29z m2574 -177 c45 -27 68
-56 79 -102 23 -88 -37 -187 -123 -203 -112 -21 -221 81 -201 188 21 112 151
174 245 117z m-1144 -169 c303 -6 601 -10 662 -10 112 0 113 0 119 -25 4 -14
4 -28 1 -31 -3 -3 -353 1 -779 10 -425 9 -815 16 -865 16 l-93 0 0 31 0 31
203 -6 c111 -4 450 -11 752 -16z m352 -149 c216 -4 394 -9 397 -12 4 -4 -115
-357 -129 -379 -3 -5 -25 -10 -48 -10 -60 0 -155 -48 -200 -100 l-36 -43 -233
108 c-128 59 -399 184 -603 277 -203 94 -372 173 -375 175 -5 5 205 2 1227
-16z m-760 -297 c318 -147 604 -278 636 -292 31 -13 57 -28 57 -31 0 -4 -6
-16 -14 -26 -13 -18 -23 -15 -212 73 -653 300 -1067 492 -1071 496 -5 5 15 46
22 46 2 0 264 -120 582 -266z m1244 139 c-86 -292 -82 -282 -110 -264 -12 8
-4 39 44 178 79 230 74 218 87 205 7 -7 1 -41 -21 -119z m1019 -598 c342 -368
641 -689 663 -713 41 -42 41 -42 21 -62 -19 -20 -20 -19 -136 108 -64 70 -366
395 -670 722 -479 513 -552 597 -539 607 9 7 21 12 27 10 7 -1 292 -303 634
-672z m-820 635 c39 0 44 -5 632 -637 326 -351 603 -650 616 -665 20 -23 -3
-15 -160 57 -101 46 -397 182 -658 303 l-474 218 -3 49 c-7 103 -29 155 -103
244 -27 33 -50 65 -50 72 0 12 100 359 107 371 2 4 15 3 29 -2 14 -6 43 -10
64 -10z m-1648 -239 c249 -115 541 -249 648 -298 l195 -90 6 -74 c3 -41 14
-94 23 -119 10 -25 18 -51 19 -57 1 -7 -189 -127 -423 -268 l-425 -255 -26 53
c-116 228 -589 1252 -581 1255 6 2 28 16 49 32 21 16 43 29 50 29 6 1 215 -93
465 -208z m-346 -546 c171 -363 310 -663 307 -667 -5 -9 24 -67 43 -86 8 -7
14 -20 14 -28 0 -16 28 -75 39 -84 4 -3 42 -79 86 -170 43 -91 138 -285 211
-432 74 -148 134 -276 134 -286 0 -10 92 -213 205 -452 189 -400 204 -436 188
-447 -9 -8 -21 -12 -27 -10 -13 4 -527 1097 -521 1108 3 4 -5 30 -19 56 -14
26 -25 44 -26 38 -1 -16 -29 38 -30 58 0 20 -28 79 -41 87 -4 3 -64 122 -132
265 -68 143 -154 320 -191 392 -36 73 -66 138 -66 144 0 6 -122 269 -271 585
-148 316 -267 579 -264 585 4 5 16 9 28 7 17 -2 76 -120 333 -663z m2686 -374
c410 -189 734 -344 735 -352 2 -8 -1 -20 -5 -27 -7 -10 -36 0 -128 41 -215 98
-1369 629 -1372 632 -2 1 0 14 3 28 4 16 12 24 20 21 8 -3 344 -158 747 -343z
m-1349 194 c-2 -28 -23 -49 -53 -51 -17 -1 -120 -65 -160 -99 -14 -12 -74 -51
-135 -87 -60 -36 -205 -122 -322 -192 -116 -69 -214 -126 -217 -126 -3 0 -10
9 -16 19 -9 18 14 34 248 175 141 85 340 209 442 275 102 67 192 120 200 118
10 -2 14 -13 13 -32z m1302 -330 c412 -191 750 -347 751 -348 1 -1 5 -25 9
-53 l7 -52 -764 -658 c-420 -362 -819 -707 -887 -766 -69 -59 -126 -106 -126
-105 -1 1 27 508 62 1127 l63 1125 32 25 c18 14 39 33 48 42 8 9 24 15 35 13
11 -2 357 -160 770 -350z m-4365 260 c149 -77 149 -293 0 -370 -132 -69 -300
35 -300 185 0 121 109 218 230 204 25 -3 56 -12 70 -19z m3218 -22 c17 -3 32
-6 32 -7 0 -1 -29 -519 -65 -1152 -36 -632 -65 -1157 -65 -1166 0 -14 -8 -18
-32 -18 l-33 0 -272 578 c-149 317 -277 589 -283 603 -11 24 11 66 321 603
259 449 336 575 348 570 9 -3 31 -8 49 -11z m172 -20 c0 -10 -29 -528 -64
-1152 l-65 -1135 -23 -17 c-23 -18 -23 -18 -26 12 -3 31 115 2195 124 2267 5
36 8 42 30 42 16 0 24 -6 24 -17z m-666 -534 c-146 -255 -270 -468 -275 -473
-4 -5 -13 2 -20 16 -10 24 0 45 123 259 364 633 358 623 396 646 20 11 38 20
40 18 2 -2 -117 -212 -264 -466z m14 299 c-8 -13 -93 -159 -188 -325 -96 -167
-177 -303 -180 -303 -6 0 -161 332 -157 336 9 9 524 313 531 314 4 0 2 -10 -6
-22z m-2275 -483 c197 -213 204 -221 189 -242 -8 -13 -17 -23 -21 -23 -4 0
-115 115 -246 256 l-238 257 24 18 c29 22 5 44 292 -266z m-669 186 c2 -3 -26
-242 -63 -531 l-67 -525 -27 -3 c-24 -3 -27 -1 -22 20 2 13 32 239 65 503 76
608 67 554 91 548 11 -3 21 -8 23 -12z m540 -266 l258 -275 3 -80 3 -79 -369
-220 c-203 -122 -371 -221 -374 -221 -5 0 -71 42 -103 65 -1 2 27 232 63 513
36 280 65 517 65 526 0 12 10 16 43 17 23 0 62 6 87 13 25 8 50 14 56 15 6 0
127 -123 268 -274z m1634 233 c-2 -5 -172 -110 -378 -233 -335 -201 -376 -223
-387 -208 -7 9 -13 19 -13 22 0 3 170 108 378 232 330 198 379 224 390 210 7
-8 11 -19 10 -23z m155 -322 l107 -228 -187 -324 c-119 -205 -191 -320 -197
-315 -6 4 -152 108 -324 231 -173 123 -316 229 -319 236 -2 7 1 22 7 34 6 12
14 48 18 81 l7 60 380 229 c209 125 384 227 390 226 5 -2 58 -105 118 -230z
m3071 109 c9 -14 14 -30 11 -35 -4 -6 -266 -234 -583 -508 -1314 -1134 -1254
-1084 -1269 -1069 -39 39 -37 41 906 854 498 430 909 782 912 782 4 1 14 -10
23 -24z m171 -128 c-2 -7 -90 -313 -194 -682 -105 -368 -207 -722 -227 -785
-19 -63 -42 -139 -49 -168 -8 -30 -21 -70 -30 -89 -9 -19 -18 -51 -20 -71 -3
-35 -430 -1540 -439 -1550 -3 -2 -18 -1 -34 3 l-29 6 174 612 c235 827 242
853 269 926 13 35 24 72 24 83 0 10 9 40 21 65 11 25 22 62 24 82 3 31 440
1575 451 1593 7 11 63 -13 59 -25z m406 -583 c115 -324 209 -590 209 -591 0 0
-13 -5 -28 -11 l-28 -9 -210 596 c-200 567 -210 596 -190 602 12 4 25 6 30 5
5 -1 103 -267 217 -592z m-795 -224 c-119 -414 -217 -754 -219 -757 -4 -4
-1157 -63 -1239 -63 -42 0 -48 3 -66 35 l-21 34 282 243 c155 134 549 474 876
756 326 282 595 511 598 509 2 -3 -93 -343 -211 -757z m669 144 l204 -579 -23
-25 c-51 -55 -76 -106 -88 -181 l-12 -75 -355 -17 c-195 -9 -356 -15 -357 -14
-1 1 92 334 208 740 116 405 213 736 215 734 2 -2 95 -265 208 -583z m-3348
298 c-64 -118 -331 -572 -337 -572 -14 0 -48 -62 -43 -80 6 -22 60 -63 73 -55
5 3 123 -76 262 -176 139 -100 315 -227 391 -281 75 -55 137 -103 137 -107 0
-19 -23 -72 -30 -69 -27 11 -790 565 -790 575 0 13 -61 53 -82 53 -17 0 -50
-54 -46 -74 4 -18 -933 -1646 -947 -1646 -47 0 -39 17 358 704 218 377 395
694 395 703 -1 10 44 92 101 183 l102 165 -28 22 c-15 13 -34 23 -40 23 -9 0
-559 387 -692 486 -8 7 55 53 67 49 32 -12 662 -470 658 -480 -2 -6 11 -21 29
-32 l33 -22 30 47 c32 50 220 370 317 540 58 101 59 102 73 77 7 -14 11 -29 9
-33z m-1640 -60 c10 -17 -24 -39 -354 -237 -209 -125 -368 -214 -373 -209 -5
5 -10 15 -12 21 -3 12 692 440 717 442 6 1 15 -7 22 -17z m1957 -598 c209
-444 246 -534 220 -534 -2 0 -72 50 -156 110 -84 61 -261 187 -393 282 -132
94 -241 172 -243 174 -2 1 65 122 150 268 l153 265 16 -32 c9 -18 123 -258
253 -533z m-1816 496 c33 -13 76 -20 119 -20 l66 0 369 -262 c268 -192 367
-267 364 -280 -3 -15 -938 -1640 -958 -1664 -5 -7 -17 -10 -27 -7 -18 5 -91
155 -654 1342 l-139 294 13 79 14 79 380 228 c209 126 385 230 390 230 6 1 34
-8 63 -19z m-1059 -315 c99 -51 120 -175 43 -256 -74 -77 -187 -73 -250 9 -23
30 -27 45 -27 101 0 76 22 117 77 144 41 21 120 22 157 2z m516 -1153 c202
-425 365 -775 362 -778 -2 -3 -17 -6 -32 -7 -27 -2 -35 14 -393 767 l-365 769
23 19 c13 10 27 15 31 11 4 -4 172 -356 374 -781z m2083 478 l410 -295 15 -60
c9 -33 18 -67 21 -75 4 -11 -16 -26 -72 -56 -595 -316 -1692 -894 -1698 -894
-4 0 -16 11 -28 23 l-22 24 470 816 c259 449 476 816 482 814 6 -1 196 -135
422 -297z m3820 157 c55 -36 87 -103 78 -165 -21 -153 -205 -216 -308 -106
-33 36 -48 74 -48 125 0 144 157 226 278 146z m-394 -276 l15 -29 -92 -6 c-51
-3 -195 -10 -322 -16 -126 -5 -268 -12 -314 -15 l-83 -5 7 27 c4 16 8 30 11
32 2 2 93 8 201 13 164 7 303 14 535 27 21 1 31 -6 42 -28z m-1039 -48 c-4
-16 -8 -29 -9 -30 -2 -2 -272 -16 -602 -33 -625 -30 -613 -31 -614 13 0 12 8
17 28 18 15 0 268 13 562 28 294 16 559 29 589 30 l53 1 -7 -27z m-38 -135
c-2 -7 -96 -332 -207 -723 -112 -390 -206 -713 -209 -717 -4 -4 -190 281 -414
633 -385 604 -408 642 -394 662 8 12 19 39 26 60 7 20 13 37 14 38 4 2 1074
56 1131 58 43 1 57 -2 53 -11z m-1822 -238 c11 -12 15 -24 9 -29 -5 -4 -382
-205 -839 -446 -456 -241 -856 -452 -888 -469 -49 -27 -59 -29 -67 -16 -5 8
-10 22 -10 31 0 12 227 137 773 425 424 224 822 434 882 466 61 32 113 58 116
58 3 0 14 -9 24 -20z m935 -643 c221 -346 403 -634 406 -641 2 -6 -9 -17 -26
-23 -27 -10 -32 -9 -48 15 -11 15 -193 301 -407 636 l-388 609 24 18 c13 10
27 18 31 16 4 -1 188 -285 408 -630z m-732 541 c47 -9 77 -9 124 0 49 9 65 9
74 -1 7 -6 192 -295 412 -640 l401 -628 -34 -44 c-31 -42 -45 -73 -59 -138 -6
-25 -10 -28 -34 -23 -15 3 -355 55 -757 116 -1743 265 -2086 318 -2092 323 -3
3 -1 22 3 42 9 36 12 37 744 424 404 213 821 433 925 489 123 66 197 100 210
97 11 -3 48 -10 83 -17z m-1536 -1193 c1308 -198 2416 -366 2434 -370 18 -4
43 -50 32 -60 -2 -2 -293 42 -648 96 -1005 154 -2294 349 -2302 349 -4 0 -2
11 4 25 6 14 19 25 29 25 10 0 213 -29 451 -65z"/>
</g>
</svg>
